<svg xmlns="http://www.w3.org/2000/svg" width="28" height="28" fill="none" viewBox="0 0 28 28"><g clip-path="url(#a)"><path fill="#C4170C" d="m19.658 7.992 1.68 1.68-5.693 5.693-3.838-3.838a1.16 1.16 0 0 0-1.645 0l-7 7.011a1.16 1.16 0 0 0 0 1.645c.455.455 1.19.455 1.645 0L10.978 14l3.839 3.838c.455.455 1.19.455 1.645 0l6.521-6.51 1.68 1.68c.362.362.992.105.992-.408V7.583A.56.56 0 0 0 25.083 7h-5.005c-.525 0-.781.63-.42.992"/></g><defs><clipPath id="a"><rect width="28" height="28" fill="#fff" rx="6"/></clipPath></defs></svg>