<svg xmlns="http://www.w3.org/2000/svg" width="48" height="48" fill="none"><g clip-path="url(#a)"><path fill="#FACD00" stroke="#000" stroke-width=".196" d="m17.064 10.318.719-.8 1.756-2.079 2.717-1.52.478-.8.48-1.36V2.64l.799-.88.479-1.12h.958l1.757.88 1.115 1.92.16 2.24 2.636 1.44 1.52 1.12 1.358 1.759 1.597 3.76.64 2.4.4 2.879.398 2.72 1.358 1.202.719 2.078.719 2 .24 2.158-.96 1.92-1.357 1.279-1.757.32-.32 1.44-.798 2-1.677 2-1.838 1.599-2.472.96-2.795.72h-4.556l-3.355-.401-3.834-1.28-2.236-1.119-1.598-1.124-1.118-.876-1.119-1.36-.798-1.12.32-1.679 1.358-.8v-1.2l.558-1.92 1.12-2.24 1.037-1.839 1.038-1.519 1.038-.96.799-.56v-1.36l.24-1.6.239-2.559.48-2.16.638-1.999z"/><path fill="#383838" d="M40.373 27.617v-.048A11.4 11.4 0 0 0 38.893 23a8 8 0 0 0-.772-1.095 1.17 1.17 0 0 0-.836-.41 85 85 0 0 0-.216-2.07l-.05-.428-.04-.308a.3.3 0 0 0-.013-.095q-.011-.102-.026-.205a1 1 0 0 0-.016-.116q-.014-.092-.026-.189c-.007-.065-.011-.078-.018-.118l-.027-.18c-.01-.06-.011-.077-.017-.116l-.031-.188a1 1 0 0 0-.016-.103l-.036-.22a15 15 0 0 0-.061-.348l-.014-.078q-.02-.1-.037-.2l-.016-.094-.036-.17c-.013-.056-.014-.072-.02-.11L36.534 16l-.023-.106a3 3 0 0 0-.036-.16c-.014-.049-.014-.066-.021-.099l-.042-.181-.078-.33-.01-.041q-.024-.106-.05-.21l-.025-.087-.04-.16-.025-.095c-.014-.05-.027-.095-.04-.148-.012-.052-.018-.064-.027-.094l-.04-.144c-.012-.05-.02-.063-.027-.095l-.045-.151-.024-.083-.06-.19a.06.06 0 0 0-.01-.038l-.07-.222-.024-.074-.05-.148-.028-.087-.047-.132-.03-.088-.047-.129-.03-.086-.048-.13-.03-.08-.056-.145a.2.2 0 0 0-.023-.06l-.078-.198-.024-.057-.057-.141-.032-.075-.051-.12-.035-.08-.05-.113-.035-.079-.05-.11-.037-.077-.053-.117c-.017-.04-.021-.044-.033-.065l-.08-.161-.019-.038-.075-.149-.033-.063-.056-.108-.038-.072-.055-.094-.038-.071q-.026-.047-.055-.095l-.037-.07-.057-.095-.038-.066-.066-.12c0-.016-.017-.03-.025-.045a3 3 0 0 1-.095-.16l-.033-.052-.062-.095-.04-.061-.058-.088-.042-.062-.055-.083-.044-.063-.057-.081-.042-.06q-.03-.044-.063-.087c-.02-.03-.024-.033-.037-.051l-.094-.132-.028-.038-.072-.095-.043-.054-.06-.075-.046-.056-.058-.071-.046-.056-.057-.069-.047-.053-.07-.07-.041-.048-.078-.086-.034-.037-.095-.103-.043-.044-.064-.067-.046-.046-.06-.063-.049-.048-.06-.057-.048-.047-.062-.06-.046-.043-.07-.063-.038-.035-.107-.095-.039-.032-.116-.1-.064-.054-.05-.04-.06-.05-.05-.037-.063-.048-.049-.04-.067-.048-.045-.034-.094-.07-.04-.03-.083-.057-.047-.031-.065-.044-.05-.034-.063-.041-.05-.032-.064-.04-.05-.03-.065-.04-.048-.03-.076-.046-.036-.02-.11-.063-.043-.022-.07-.038-.048-.027-.066-.035-.05-.025-.063-.032-.048-.028-.065-.03-.128-.077-.041-.02-.11-.048-.035-.016-.079-.034-.046-.02-.068-.029-.05-.019-.063-.025-.05-.019-.065-.026-.047-.017-.07-.026-.045-.016-.12-.04-.103-.036-.028-.007a4.7 4.7 0 0 0-.886-3.7C27.28.617 26.258 0 25.398 0a1.46 1.46 0 0 0-1.117.48c-.256.28-.405.642-.42 1.021a1.44 1.44 0 0 0-1.198 1.057 1.5 1.5 0 0 0 .212 1.25c-.346.32-.655.817-.689 1.624q-.756.264-1.463.641a7 7 0 0 0-.32.18l-.27.16a10 10 0 0 0-.781.542 2 2 0 0 0-.189.161 9 9 0 0 0-.357.302 11 11 0 0 0-.949.957c-.085.094-.17.2-.255.305s-.131.16-.195.248l-.11.142a11 11 0 0 0-.626.942q-.114.192-.224.391c-.055.095-.11.2-.16.302-.095.19-.197.389-.291.594q-.27.578-.502 1.228a13 13 0 0 0-.27.821 18 18 0 0 0-.313 1.161 19 19 0 0 0-.281 1.404q-.096.585-.174 1.213-.083.72-.134 1.499a63 63 0 0 0-.115 2.463v.17c-.249 0-1.006 0-3.035 3.32-1.17 1.923-2.152 3.979-2.556 5.367-.16.526-.306 1.201-.149 1.693H8.45l-.08.016-.035.007-.073.016-.034.01-.078.02-.025.009a1 1 0 0 0-.1.033H8.01l-.08.032-.03.013-.063.029-.031.016-.063.034-.026.014-.08.051-.08.06-.022.017-.053.046-.025.024-.073.072-.049.06-.014.019q-.031.04-.061.083l-.013.02q-.022.035-.041.072a.5.5 0 0 0-.05.1l-.017.034-.048.094-.014.034q-.019.055-.036.115a1.2 1.2 0 0 0-.04.297c.017.49.141.97.364 1.408q.209.454.48.873c.08.122.159.245.253.37.583.789 1.264 1.5 2.028 2.115a15.3 15.3 0 0 0 2.17 1.474c1.716.96 3.887 1.776 6.548 2.21q.64.105 1.33.178 1.527.163 3.061.16a21.4 21.4 0 0 0 3.577-.283c.42-.072.824-.16 1.214-.253 2.526-.626 4.41-1.773 5.807-3.263a13 13 0 0 0 .454-.515l.14-.174a12 12 0 0 0 1.37-2.226q.089-.18.16-.363c.036-.078.069-.16.103-.235q.105-.255.203-.512c.046-.122.094-.247.133-.378a9 9 0 0 0 .115-.342l.102-.32a1.1 1.1 0 0 0 .537-.053 5.1 5.1 0 0 0 1.776-1.02 4.3 4.3 0 0 0 1.233-1.928 6 6 0 0 0 .215-2.39zM24.831 4.118a.03.03 0 0 0 .02-.006.03.03 0 0 0 .012-.02.03.03 0 0 0 0-.02.03.03 0 0 0-.017-.013c-.72-.337-1.455-.662-1.295-1.25.077-.283.319-.396.628-.396.474.035.934.173 1.35.402a.02.02 0 0 0 .016 0 .03.03 0 0 0 .017-.004.04.04 0 0 0 .011-.015.03.03 0 0 0 0-.018.02.02 0 0 0-.009-.015c-.522-.536-1.087-1.102-.596-1.665a.54.54 0 0 1 .43-.16c.999 0 2.967 1.671 2.587 4.101l-.047-.01-.063-.012-.046-.01-.066-.013-.116-.02h-.037l-.106-.018h-.02l-.088-.013h-.039l-.069-.01h-.15l-.065-.007h-.147l-.085-.008h-1.389l-.205.009h-.014l-.188.013h-.021l-.176.014h-.028l-.17.018h-.02l-.171.021h-.012l-.175.022-.24.036-.244.042-.065.013c-.16.029-.306.06-.463.095l-.079.02-.034.007c.185-.985.99-1.071 1.684-1.11M9.955 28.928a30 30 0 0 1 2.336-4.401c1.05-1.634 1.661-2.19 1.872-2.305a.1.1 0 0 1 .04-.02c.257.013.59.306.882.772q.014.025.03.049c.86 1.43 1.188 3.968.25 5.738q-.264.505-.638.938a5.4 5.4 0 0 1-2.237 1.5 6 6 0 0 1-.531.168c-1.244.328-2.264.19-2.624-.01-.03-.084-.136-.612.62-2.428zm26.493-.117a21 21 0 0 1-.652 3.679c-.094.328-.188.647-.297.96a11.4 11.4 0 0 1-2.17 3.807 10 10 0 0 1-3.875 2.662c-1.732.68-3.819 1.025-6.208 1.025a27 27 0 0 1-3.424-.208 24 24 0 0 1-1.33-.206 19.2 19.2 0 0 1-4.654-1.46c-2.02-.945-3.742-2.26-4.846-3.712-1.02-1.337-1.086-2.185-1.049-2.324.085-.3.263-.533 1.671-.533h.76c1.047 0 1.842-.142 2.492-.448a6.1 6.1 0 0 0 3.33-2.854c1.132-2.142.704-5.027-.275-6.657a3.3 3.3 0 0 0-.807-.936c.022-.907.06-1.882.126-2.922.283-4.462 1.51-7.842 3.641-10.055a9.2 9.2 0 0 1 3.662-2.326 10 10 0 0 1 1.861-.445q.739-.104 1.485-.105a8.8 8.8 0 0 1 2.692.4 8 8 0 0 1 3.108 1.859c2.3 2.186 3.78 5.918 4.4 11.094.1.844.203 1.767.283 2.74.191 2.192.289 4.632.076 6.965m3.028-.31a4.6 4.6 0 0 1-.136.995 3.5 3.5 0 0 1-.45 1.057q-.12.19-.267.363-.07.085-.152.16c-.053.048-.108.107-.16.16-.05.053-.108.095-.16.14a4 4 0 0 1-.897.538q-.185.083-.377.147a21 21 0 0 0 .316-1.612l.038-.264q.05-.337.09-.679l.049-.479a47 47 0 0 0 .092-1.2q.012-.24.021-.48t.015-.48v-1.681c0-.16 0-.32-.013-.48-.013-.161-.011-.32-.018-.48q-.008-.24-.02-.48a52 52 0 0 0-.084-1.294h.017q.02.014.035.033.18.21.35.452.127.18.251.378l.081.134q.275.465.493.96a11 11 0 0 1 .477 1.309 11 11 0 0 1 .382 1.936q.018.143.024.284c.004.203.008.386.003.564z"/><path fill="#383838" d="M22.06 44.954a1.02 1.02 0 0 1-.943-.67l-.943-2.56q-.685-.075-1.33-.179c.437 1.215.975 2.71 1.127 3.11.05.133 0 .299-.247.299h-1.452s-.44.97.754.935c3.302-.099 2.943 2.551 3.983 2.048 1-.48-.904-2.05-.875-2.048 3.801.48 2.587-.939 2.587-.939s-1.935.004-2.66.004zm7.133-1.304a.46.46 0 0 1-.433-.292c-.174-.438-.503-1.37-.735-2.014-.39.094-.798.18-1.214.252.25.695.599 1.656.628 1.749.069.212.019.293-.357.293h-1.415s-.407.912 1.154.912c3.185 0 2.522 2.68 3.748 1.994.782-.438-.671-1.674-.788-1.822-.067-.083-.013-.2.16-.174 3.253.498 2.452-.91 2.452-.91s-2.245.012-3.2.012m-4.956-27.305a.712.712 0 1 0-.328-1.386.712.712 0 0 0 .328 1.386m7.734-.095a.713.713 0 1 0-.75-1.21.713.713 0 0 0 .75 1.21m-2.052 1.89-1.804-.748a.55.55 0 0 0-.378 0l-1.807.748a.3.3 0 0 0-.215.256.31.31 0 0 0 .15.302l1.83 1.188a.36.36 0 0 0 .228.067.36.36 0 0 0 .226-.067l1.833-1.188a.307.307 0 0 0 .083-.463.3.3 0 0 0-.146-.095"/></g><defs><clipPath id="a"><path fill="#fff" d="M0 0h48v48H0z"/></clipPath></defs></svg>