<svg xmlns="http://www.w3.org/2000/svg" width="22" height="22" fill="none"><g clip-path="url(#a)"><path fill="#2867B2" fill-rule="evenodd" d="M1.623.002H20.37V0A1.61 1.61 0 0 1 22 1.586v18.826A1.61 1.61 0 0 1 20.37 22H1.623A1.607 1.607 0 0 1 0 20.412V1.587A1.606 1.606 0 0 1 1.623.002m3.273 6.81a1.892 1.892 0 1 1 0-3.783 1.892 1.892 0 0 1 0 3.784zm1.63 11.934H3.263V8.248h3.263zm12.218-.001h-3.26V13.64c0-1.217-.02-2.784-1.695-2.784-1.697 0-1.957 1.326-1.957 2.695v5.194h-3.26V8.247h3.13V9.68h.043a3.43 3.43 0 0 1 3.088-1.695c3.304 0 3.913 2.173 3.913 5l-.002 5.759z" clip-rule="evenodd"/></g><defs><clipPath id="a"><path fill="#fff" d="M0 0h22v22H0z"/></clipPath></defs></svg>