<svg xmlns="http://www.w3.org/2000/svg" width="20" height="16" fill="none"><path fill="#C4170C" d="M6.033 1q.844 0 .634.953L5.488 6.635q1.425.393 2.322 1.627t.897 2.86q0 2.075-1.32 3.476Q6.123 16 4.434 16q-1.848 0-3.167-1.402Q0 13.197 0 11.121q0-1.065.317-2.074.316-1.065.738-2.075.475-1.01.634-1.402l2.234-3.897Q4.187 1 4.873 1zm5.26 10.121q0-1.065.317-2.074.316-1.065.738-2.075.476-1.01.633-1.402l2.235-3.897q.263-.673.95-.673h1.16q.845 0 .633.953l-1.178 4.682q1.425.393 2.322 1.627t.897 2.86q0 2.075-1.32 3.476Q17.414 16 15.726 16q-1.847 0-3.167-1.402-1.266-1.401-1.266-3.477"/></svg>