<svg xmlns="http://www.w3.org/2000/svg" width="22" height="22" fill="none"><rect width="22" height="22" fill="#30A3E6" rx="11"/><path fill="#fff" fill-rule="evenodd" d="M11 22c6.075 0 11-4.925 11-11S17.075 0 11 0 0 4.925 0 11s4.925 11 11 11M3.762 10.735q5.636-2.328 7.517-3.07C14.86 6.254 15.603 6.008 16.087 6c.108-.002.346.024.5.143.103.084.17.202.185.33q.039.24.021.481c-.194 1.934-1.034 6.623-1.46 8.788-.181.916-.538 1.222-.882 1.253-.593.05-1.073-.273-1.607-.635q-.21-.143-.435-.285a96 96 0 0 1-1.509-.96l-.037-.024c-.408-.263-.82-.529-1.33-.848-1.096-.685-.639-1.104-.026-1.662.098-.091.202-.186.303-.285.045-.044.265-.239.576-.513 1-.88 2.927-2.58 2.976-2.776.008-.033.015-.153-.06-.216-.075-.064-.187-.042-.268-.025q-.17.037-5.436 3.408-.772.5-1.399.49c-.46-.01-1.345-.247-2.003-.45l-.204-.062-.079-.024c-.668-.198-1.16-.345-1.11-.718q.042-.33.959-.675" clip-rule="evenodd"/></svg>