<svg xmlns="http://www.w3.org/2000/svg" width="24" height="24" fill="none"><path fill="#fff" fill-rule="evenodd" d="M17.04 14.184c-.274-.137-1.62-.795-1.87-.887-.25-.09-.433-.136-.616.138-.183.27-.707.885-.866 1.067s-.32.204-.593.068c-.274-.137-1.156-.424-2.202-1.352-.813-.722-1.363-1.614-1.522-1.887s-.018-.42.12-.556c.123-.122.273-.318.41-.476.138-.16.183-.274.274-.456.092-.181.046-.34-.023-.477-.068-.136-.615-1.477-.844-2.023-.222-.53-.448-.458-.615-.467a12 12 0 0 0-.525-.01c-.183 0-.48.069-.73.342-.251.272-.958.931-.958 2.272s.98 2.636 1.118 2.818c.137.181 1.93 2.933 4.675 4.113.654.28 1.163.448 1.56.573.656.208 1.253.179 1.725.108.525-.078 1.619-.659 1.847-1.295s.228-1.182.16-1.295c-.069-.114-.25-.182-.525-.319zm-4.993 6.786h-.004a9.1 9.1 0 0 1-4.635-1.264l-.332-.196-3.446.9.92-3.344-.217-.342a9 9 0 0 1-1.391-4.822c.001-4.996 4.086-9.06 9.108-9.06 2.432 0 4.718.944 6.437 2.656a8.97 8.97 0 0 1 2.664 6.41c-.002 4.996-4.087 9.062-9.104 9.062m7.748-16.773a10.9 10.9 0 0 0-3.553-2.371A10.9 10.9 0 0 0 12.046 1C6.009 1 1.094 5.89 1.092 11.901a10.84 10.84 0 0 0 1.462 5.45L1 23l5.806-1.516a11 11 0 0 0 5.236 1.327h.005c6.036 0 10.951-4.89 10.953-10.902a10.8 10.8 0 0 0-.827-4.175 10.8 10.8 0 0 0-2.378-3.537" clip-rule="evenodd"/></svg>